<svg xmlns="http://www.w3.org/2000/svg" viewBox="0 0 32 32">
  <!-- Brand-navy rounded square for crisp contrast at small sizes -->
  <rect width="32" height="32" rx="7" fill="#1a3848"/>
  <!-- Steam -->
  <g fill="none" stroke="#7dd3fc" stroke-width="1.7" stroke-linecap="round">
    <path d="M12.5 5.5c-1.1 1.1-1.1 2.2 0 3.3s1.1 2.2 0 3.3"/>
    <path d="M16 4.7c-1.1 1.1-1.1 2.2 0 3.3s1.1 2.2 0 3.3"/>
    <path d="M19.5 5.5c-1.1 1.1-1.1 2.2 0 3.3s1.1 2.2 0 3.3"/>
  </g>
  <!-- Cup body -->
  <path d="M7 14.5h13.5v4.5a5.5 5.5 0 0 1-5.5 5.5h-2.5a5.5 5.5 0 0 1-5.5-5.5z" fill="#ffffff"/>
  <!-- Handle -->
  <path d="M20.5 16h2.4a3 3 0 0 1 0 6h-2.4" fill="none" stroke="#ffffff" stroke-width="2.2"/>
  <!-- Saucer -->
  <rect x="5" y="25.5" width="18" height="2.4" rx="1.2" fill="#ffffff"/>
</svg>
